<?xml version="1.0" encoding="UTF-8" standalone="no"?>
<svg width="32px" height="27px" viewBox="0 0 32 27" version="1.1" xmlns="http://www.w3.org/2000/svg" xmlns:xlink="http://www.w3.org/1999/xlink">
    <!-- Generator: Sketch 41.2 (35397) - http://www.bohemiancoding.com/sketch -->
    <title>Group</title>
    <desc>Created with Sketch.</desc>
    <defs></defs>
    <g id="-home" stroke="none" stroke-width="1" fill="none" fill-rule="evenodd">
        <g id="Group" fill="#101115">
            <polygon id="Fill-1" points="6.54517551 0.000128571428 6.34795102 2.64355714 4.58925714 1.04155714 4.70158367 3.35327143 2.49946122 1.87534286 2.61766531 4.32334286 0.435134694 2.70848571 2.18142041 7.70991429 8.74272653 4.11634286"></polygon>
            <polygon id="Fill-2" points="4.5248 17.7456857 3.99386122 25.2394714 5.16937143 25.5030429 5.57035102 24.5291143 6.90390204 23.2749"></polygon>
            <polygon id="Fill-3" points="20.9682286 22.1475214 23.7319837 25.9750929 23.7319837 27.00045 25.1739429 27.00045 25.1739429 26.0535214 26.3631673 23.8645929"></polygon>
            <path d="M28.4333714,5.52130714 L31.7443918,10.0952357 L29.527902,8.99145 L28.887249,19.3240929 L29.7695347,24.9760929 L29.9837388,25.9487357 L28.2727184,26.2913786 L28.0585143,25.3701643 L26.6172082,23.3998071 L20.4470857,21.4262357 L11.5517388,21.1125214 L9.95043265,25.5025929 L9.95043265,26.3961643 L8.26749388,26.2650214 L8.13426939,25.5025929 L7.41263673,22.7942357 L4.60839184,16.5630214 L2.31484082,9.42216429 L10.0614531,4.85145 L28.4333714,5.52130714 Z M24.0532898,20.9010214 L26.0163918,22.5563786 L27.9794939,7.80795 L24.0532898,7.80795 L24.0532898,20.9010214 Z M22.9313306,7.17795 L19.5661061,7.17795 L20.6077388,19.4822357 L22.9313306,20.1128786 L22.9313306,7.17795 Z M13.8237388,6.86230714 L12.674351,13.1713071 L19.0051265,13.1713071 L18.2834939,7.17795 L13.8237388,6.86230714 Z M12.674351,14.1638786 L11.1527184,20.1128786 L19.3048816,19.79595 L19.3048816,14.1638786 L12.674351,14.1638786 Z M11.8730449,12.1588071 L12.674351,7.17795 L10.1907592,6.23230714 L6.34488163,10.0155214 L11.8730449,12.1588071 Z M5.62324898,10.8043071 L4.5012898,11.6728071 L9.50961633,21.6891643 L11.6340245,13.6438071 L5.62324898,10.8043071 Z" id="Fill-4"></path>
        </g>
    </g>
</svg>